<?xml version="1.0" encoding="UTF-8" standalone="no"?>
<!-- Created with Inkscape (http://www.inkscape.org/) -->

<svg
   xmlns:dc="http://purl.org/dc/elements/1.1/"
   xmlns:cc="http://creativecommons.org/ns#"
   xmlns:rdf="http://www.w3.org/1999/02/22-rdf-syntax-ns#"
   xmlns:svg="http://www.w3.org/2000/svg"
   xmlns="http://www.w3.org/2000/svg"
   xmlns:xlink="http://www.w3.org/1999/xlink"
   xmlns:sodipodi="http://sodipodi.sourceforge.net/DTD/sodipodi-0.dtd"
   xmlns:inkscape="http://www.inkscape.org/namespaces/inkscape"
   width="440"
   height="280"
   id="svg2"
   version="1.1"
   inkscape:version="0.48.3.1 r9886"
   sodipodi:docname="Capitals-Promo.svg"
   inkscape:export-filename="/home/nathaniel/Drive/Scripts/Capitals-Promo.png"
   inkscape:export-xdpi="90"
   inkscape:export-ydpi="90">
  <defs
     id="defs4">
    <linearGradient
       id="linearGradient3787">
      <stop
         style="stop-color:#ffffff;stop-opacity:1;"
         offset="0"
         id="stop3789" />
      <stop
         id="stop4319"
         offset="0.64999998"
         style="stop-color:#ffffff;stop-opacity:0.49803922;" />
      <stop
         style="stop-color:#ffffff;stop-opacity:0;"
         offset="1"
         id="stop3791" />
    </linearGradient>
    <linearGradient
       id="linearGradient3777">
      <stop
         style="stop-color:#000000;stop-opacity:1;"
         offset="0"
         id="stop3779" />
      <stop
         id="stop3785"
         offset="0.5"
         style="stop-color:#000000;stop-opacity:0.25098041;" />
      <stop
         style="stop-color:#000000;stop-opacity:0;"
         offset="1"
         id="stop3781" />
    </linearGradient>
    <linearGradient
       id="linearGradient3769">
      <stop
         style="stop-color:#000000;stop-opacity:1;"
         offset="0"
         id="stop3771" />
      <stop
         style="stop-color:#000000;stop-opacity:0;"
         offset="1"
         id="stop3773" />
    </linearGradient>
    <linearGradient
       inkscape:collect="always"
       xlink:href="#linearGradient3787"
       id="linearGradient3793"
       x1="20.643572"
       y1="825.62071"
       x2="396.8381"
       y2="825.62071"
       gradientUnits="userSpaceOnUse"
       gradientTransform="matrix(0.94743787,0,0,0.94743789,0.44149738,47.137779)" />
    <linearGradient
       inkscape:collect="always"
       xlink:href="#linearGradient3787"
       id="linearGradient3805"
       x1="19.5"
       y1="829.36218"
       x2="376.92099"
       y2="829.36218"
       gradientUnits="userSpaceOnUse" />
  </defs>
  <sodipodi:namedview
     id="base"
     pagecolor="#ffcd00"
     bordercolor="#666666"
     borderopacity="1.0"
     inkscape:pageopacity="1"
     inkscape:pageshadow="2"
     inkscape:zoom="1.4142136"
     inkscape:cx="176.73894"
     inkscape:cy="150.74711"
     inkscape:document-units="px"
     inkscape:current-layer="layer1"
     showgrid="false"
     inkscape:window-width="1366"
     inkscape:window-height="722"
     inkscape:window-x="0"
     inkscape:window-y="24"
     inkscape:window-maximized="1">
    <inkscape:grid
       type="xygrid"
       id="grid2991"
       empspacing="5"
       visible="true"
       enabled="true"
       snapvisiblegridlinesonly="true" />
  </sodipodi:namedview>
  <metadata
     id="metadata7">
    <rdf:RDF>
      <cc:Work
         rdf:about="">
        <dc:format>image/svg+xml</dc:format>
        <dc:type
           rdf:resource="http://purl.org/dc/dcmitype/StillImage" />
        <dc:title />
      </cc:Work>
    </rdf:RDF>
  </metadata>
  <g
     inkscape:label="Layer 1"
     inkscape:groupmode="layer"
     id="layer1"
     transform="translate(0,-772.36218)">
    <text
       xml:space="preserve"
       style="font-size:91.95402527000000248px;font-style:normal;font-variant:normal;font-weight:bold;font-stretch:normal;text-align:start;line-height:125%;letter-spacing:0px;word-spacing:0px;text-anchor:start;fill:none;fill-opacity:1;stroke:url(#linearGradient3805);font-family:Fenix;-inkscape-font-specification:Fenix Bold;stroke-opacity:1;stroke-width:2;stroke-miterlimit:4;stroke-dasharray:none"
       x="21.195402"
       y="860.62653"
       id="text2987"
       sodipodi:linespacing="125%"><tspan
         sodipodi:role="line"
         id="tspan2989"
         x="21.195402"
         y="860.62653"
         style="font-style:normal;font-weight:normal;text-align:start;text-anchor:start;fill:none;fill-opacity:1;-inkscape-font-specification:Fenix;stroke:url(#linearGradient3805);stroke-opacity:1;stroke-width:2;stroke-miterlimit:4;stroke-dasharray:none">AaBbCcD</tspan></text>
    <g
       style="font-size:58.91666794000000351px;font-style:normal;font-variant:normal;font-weight:normal;font-stretch:normal;line-height:125%;letter-spacing:0px;word-spacing:0px;fill:#ffffff;fill-opacity:1;stroke:none;font-family:Fenix;-inkscape-font-specification:Fenix"
       id="text3022">
      <path
         sodipodi:type="inkscape:offset"
         inkscape:radius="-0.50897497"
         inkscape:original="M 62.0625 932.28125 C 55.817292 932.28133 50.114104 933.37106 44.96875 935.53125 C 39.823337 937.65234 35.387619 940.6196 31.65625 944.46875 C 27.964126 948.31804 25.104935 952.93954 23.0625 958.28125 C 21.02005 963.5838 19.999995 969.41027 20 975.8125 C 19.999995 982.13625 20.927161 987.97075 22.8125 993.3125 C 24.737102 998.65429 27.48821 1003.2446 31.0625 1007.0938 C 34.636759 1010.9429 38.94117 1013.9647 43.96875 1016.125 C 49.035549 1018.2852 54.738739 1019.375 61.0625 1019.375 C 68.132448 1019.375 74.191136 1018.2156 79.21875 1015.9375 C 84.285515 1013.6594 88.543482 1010.375 92 1006.0938 L 85.75 999.34375 C 85.082208 998.67604 84.332792 998.34377 83.46875 998.34375 C 82.997349 998.34377 82.525738 998.45186 82.09375 998.6875 C 81.661628 998.88391 81.267712 999.14652 80.875 999.5 C 79.578769 1000.6783 78.241632 1001.6752 76.90625 1002.5 C 75.610023 1003.2856 74.211247 1003.9582 72.71875 1004.4688 C 71.265417 1004.9794 69.673696 1005.3268 67.90625 1005.5625 C 66.177977 1005.7982 64.222729 1005.9375 62.0625 1005.9375 C 58.448901 1005.9375 55.079682 1005.273 51.9375 1003.9375 C 48.795244 1002.5628 46.067358 1000.5843 43.75 998.03125 C 41.432585 995.47822 39.593448 992.32517 38.21875 988.59375 C 36.883284 984.8624 36.18748 980.60442 36.1875 975.8125 C 36.18748 971.05993 36.836839 966.84841 38.09375 963.15625 C 39.350615 959.42492 41.096863 956.27186 43.375 953.71875 C 45.653081 951.12648 48.388995 949.17926 51.53125 947.84375 C 54.712711 946.4691 58.190013 945.78132 62 945.78125 C 64.238785 945.78132 66.217254 945.95907 67.90625 946.3125 C 69.634418 946.62679 71.141278 947.02071 72.4375 947.53125 C 73.733609 948.00265 74.861746 948.5359 75.84375 949.125 C 76.825633 949.71423 77.69116 950.27071 78.4375 950.78125 C 79.183714 951.25265 79.871491 951.67782 80.5 952.03125 C 81.128378 952.34554 81.754517 952.50006 82.34375 952.5 C 83.207794 952.50006 83.872348 952.32231 84.34375 951.96875 C 84.854292 951.61531 85.248208 951.19015 85.5625 950.71875 L 90.875 943.375 C 87.497039 940.07575 83.393598 937.38628 78.5625 935.34375 C 73.770552 933.3014 68.268336 932.28133 62.0625 932.28125 z "
         style="font-size:117.83333588000000702px;font-weight:bold;text-align:start;line-height:125%;writing-mode:lr-tb;text-anchor:start;font-family:Lato;-inkscape-font-specification:Lato Bold;fill:#ffffff;fill-opacity:1"
         id="path3860"
         d="m 62.0625,932.78125 c -6.186004,8e-5 -11.828338,1.08687 -16.90625,3.21875 -5.086071,2.09663 -9.442954,5.01423 -13.125,8.8125 -3.642113,3.79715 -6.479181,8.37107 -8.5,13.65625 -2.01793,5.23889 -3.031255,10.99558 -3.03125,17.34375 -5e-6,6.26293 0.92381,12.03863 2.78125,17.3125 0.0033,0.009 -0.0033,0.0219 0,0.0312 1.903198,5.27197 4.636756,9.80355 8.15625,13.59375 3.525995,3.7971 7.75253,6.7723 12.71875,8.9062 4.996858,2.1304 10.640965,3.2188 16.90625,3.2188 7.014304,0 12.990771,-1.1648 17.9375,-3.4062 4.866001,-2.1879 8.953929,-5.3152 12.3125,-9.375 l -5.9375,-6.37505 c -0.592856,-0.59278 -1.172686,-0.87498 -1.90625,-0.875 -0.393612,2e-5 -0.772283,0.0888 -1.125,0.28125 a 0.50902587,0.50902587 0 0 1 -0.03125,0.0312 c -0.382613,0.17391 -0.733661,0.39463 -1.09375,0.71875 -1.319414,1.1994 -2.669106,2.2212 -4.03125,3.0625 a 0.50902587,0.50902587 0 0 1 -0.03125,0 c -1.324904,0.803 -2.751382,1.4766 -4.28125,2 -1.494865,0.5252 -3.113538,0.8859 -4.90625,1.125 -1.752595,0.239 -3.724141,0.375 -5.90625,0.375 -3.675995,0 -7.105712,-0.6683 -10.3125,-2.0313 a 0.50902587,0.50902587 0 0 1 -0.03125,0 c -3.207448,-1.4032 -5.980745,-3.4279 -8.34375,-6.0312 -2.367513,-2.60822 -4.231549,-5.81143 -5.625,-9.59375 a 0.50902587,0.50902587 0 0 1 0,-0.0312 c -1.357961,-3.7942 -2.06252,-8.09631 -2.0625,-12.9375 -2e-5,-4.79893 0.659771,-9.05919 1.9375,-12.8125 1.274702,-3.78428 3.044289,-7.01297 5.375,-9.625 2.32804,-2.64912 5.135466,-4.63643 8.34375,-6 3.248676,-1.40369 6.785015,-2.09368 10.65625,-2.09375 2.265716,7e-5 4.266496,0.16851 6,0.53125 1.750584,0.31837 3.286695,0.72289 4.625,1.25 1.322823,0.48112 2.455475,1.01714 3.46875,1.625 0.98996,0.59408 1.869562,1.17074 2.625,1.6875 l 0,-0.0312 c 0.73025,0.46132 1.393938,0.87661 2,1.21875 0.56709,0.28364 1.124786,0.43755 1.625,0.4375 0.794222,6e-5 1.334277,-0.17258 1.6875,-0.4375 a 0.50902587,0.50902587 0 0 1 0.03125,0 c 0.454222,-0.31445 0.77874,-0.69939 1.0625,-1.125 a 0.50902587,0.50902587 0 0 1 0.03125,-0.0312 l 5.03125,-6.96875 c -3.265837,-3.10736 -7.190447,-5.67085 -11.8125,-7.625 -4.718906,-2.01122 -10.162435,-3.03117 -16.3125,-3.03125 z" />
      <path
         id="path3853"
         style="font-weight:900;text-align:start;line-height:125%;writing-mode:lr-tb;text-anchor:start;font-family:Lato;-inkscape-font-specification:Lato Heavy;fill:#ffffff;fill-opacity:1"
         d="m 415.71082,970.53804 c -0.41246,0.65992 -0.85237,1.15482 -1.31974,1.4847 -0.43995,0.32998 -1.01733,0.49495 -1.73215,0.4949 -0.6324,5e-5 -1.31976,-0.19241 -2.06208,-0.57738 -0.71489,-0.41237 -1.53972,-0.86603 -2.4745,-1.36097 -0.90735,-0.49486 -1.95213,-0.93477 -3.13437,-1.31974 -1.18228,-0.41236 -2.52951,-0.61857 -4.04168,-0.61862 -2.61199,5e-5 -4.5641,0.56368 -5.85632,1.69091 -1.26476,1.09982 -1.89713,2.59827 -1.89711,4.49534 -2e-5,1.20979 0.3849,2.21334 1.15476,3.01064 0.76983,0.79738 1.77338,1.48474 3.01065,2.06208 1.26472,0.57742 2.69443,1.11356 4.28913,1.60843 1.62214,0.46744 3.27181,1.00358 4.949,1.60842 1.67713,0.57742 3.31305,1.26478 4.90776,2.06208 1.62213,0.79738 3.05184,1.81467 4.28913,3.05189 1.2647,1.23728 2.282,2.74947 3.05188,4.53658 0.7698,1.75967 1.15473,3.89049 1.15477,6.39246 -4e-5,2.77694 -0.4812,5.37514 -1.44346,7.79464 -0.96235,2.4196 -2.36456,4.5366 -4.20665,6.3513 -1.81467,1.7871 -4.06921,3.2031 -6.76363,4.2478 -2.66699,1.0173 -5.70512,1.526 -9.11441,1.526 -1.86964,0 -3.7805,-0.1925 -5.73259,-0.5774 -1.92463,-0.3849 -3.79425,-0.9211 -5.60887,-1.6084 -1.81464,-0.7149 -3.51929,-1.5535 -5.11396,-2.5158 -1.59469,-0.9623 -2.98315,-2.0345 -4.16541,-3.2168 l 4.12416,-6.5162 c 0.32993,-0.4674 0.7561,-0.8523 1.2785,-1.1548 0.54988,-0.3299 1.14101,-0.4949 1.77339,-0.4949 0.82482,0 1.64965,0.2612 2.4745,0.7836 0.85231,0.5224 1.80087,1.0998 2.84567,1.7322 1.07227,0.6324 2.29577,1.2097 3.67051,1.7321 1.3747,0.5224 2.99687,0.7836 4.86652,0.7836 2.52946,0 4.49531,-0.5499 5.89756,-1.6496 1.40218,-1.1273 2.10329,-2.9007 2.10332,-5.3202 -3e-5,-1.40222 -0.38495,-2.54324 -1.15477,-3.42308 -0.76987,-0.8798 -1.78716,-1.6084 -3.05188,-2.18581 -1.23727,-0.57736 -2.65324,-1.08601 -4.24789,-1.52594 -1.5947,-0.43989 -3.23062,-0.92104 -4.90776,-1.44346 -1.67718,-0.54986 -3.31309,-1.20973 -4.90776,-1.9796 -1.59469,-0.79731 -3.0244,-1.82835 -4.28913,-3.09313 -1.23726,-1.2922 -2.2408,-2.88688 -3.01064,-4.78403 -0.76985,-1.92457 -1.15477,-4.28909 -1.15477,-7.09356 0,-2.2545 0.45366,-4.45406 1.36098,-6.59867 0.90731,-2.14452 2.24079,-4.05538 4.00044,-5.73259 1.75963,-1.67711 3.91794,-3.01059 6.47494,-4.00044 2.55696,-1.01724 5.48512,-1.52588 8.78447,-1.52595 1.84211,7e-5 3.62924,0.15128 5.36142,0.45366 1.75961,0.27501 3.42303,0.70117 4.99024,1.27849 1.56715,0.54995 3.02435,1.22356 4.37162,2.02085 1.37468,0.7699 2.59818,1.64972 3.67051,2.63946 l -3.4643,6.47494 m -40.32533,36.74636 0,11.1352 -36.21018,0 0,-60.08909 13.93968,0 0,48.95389 22.2705,0 m -63.09457,-11.83639 -5.56763,-16.45542 c -0.41245,-1.04475 -0.85236,-2.26825 -1.31973,-3.67051 -0.46744,-1.42967 -0.93484,-2.96936 -1.40222,-4.61907 -0.41244,1.67721 -0.85235,3.23064 -1.31973,4.66031 -0.46743,1.42975 -0.90734,2.667 -1.31973,3.71175 l -5.52639,16.37294 16.45543,0 m 22.14677,22.97159 -10.80531,0 c -1.20981,0 -2.18586,-0.2749 -2.92816,-0.8248 -0.7424,-0.5774 -1.30603,-1.306 -1.69091,-2.1858 l -3.54678,-10.4754 -22.84789,0 -3.54678,10.4754 c -0.30245,0.7698 -0.85234,1.4709 -1.64967,2.1033 -0.76985,0.6049 -1.73216,0.9073 -2.88691,0.9073 l -10.8878,0 23.2603,-60.08909 14.26961,0 23.2603,60.08909 m -55.18652,-49.03632 -16.90908,0 0,49.03632 -13.93968,0 0,-49.03632 -16.90908,0 0,-11.05277 47.75784,0 0,11.05277 m -54.77278,49.03632 -14.02217,0 0,-60.08909 14.02217,0 0,60.08909 m -45.34264,-30.6013 c 3.62923,3e-5 6.2412,-0.86604 7.83591,-2.59822 1.59464,-1.73212 2.39198,-4.15163 2.39202,-7.25854 -4e-5,-1.37468 -0.20625,-2.62567 -0.61863,-3.75299 -0.41245,-1.12722 -1.04482,-2.08953 -1.89711,-2.88691 -0.82487,-0.82479 -1.8834,-1.45716 -3.17561,-1.89712 -1.26478,-0.43986 -2.77697,-0.65982 -4.53658,-0.65987 l -7.25854,0 0,19.05365 7.25854,0 m 0,-29.48779 c 4.23411,6e-5 7.86337,0.50871 10.8878,1.52594 3.05184,0.98986 5.55383,2.36458 7.50598,4.12417 1.97955,1.7597 3.43676,3.83552 4.37162,6.22749 0.93476,2.39206 1.40216,4.97654 1.40221,7.75343 -5e-5,2.99694 -0.4812,5.74638 -1.44346,8.24834 -0.96235,2.50202 -2.4333,4.64658 -4.41285,6.4337 -1.97965,1.78716 -4.49539,3.18937 -7.54723,4.20665 -3.02442,0.98982 -6.61244,1.48472 -10.76407,1.4847 l -7.25854,0 0,20.08467 -13.93968,0 0,-60.08909 21.19822,0 m -48.08263,37.1175 -5.56762,-16.45542 c -0.41245,-1.04475 -0.85236,-2.26825 -1.31973,-3.67051 -0.46744,-1.42967 -0.93484,-2.96936 -1.40222,-4.61907 -0.41245,1.67721 -0.85236,3.23064 -1.31973,4.66031 -0.46744,1.42975 -0.90735,2.667 -1.31974,3.71175 l -5.52638,16.37294 16.45542,0 m 22.14678,22.97159 -10.80532,0 c -1.2098,0 -2.18585,-0.2749 -2.92816,-0.8248 -0.74239,-0.5774 -1.30603,-1.306 -1.6909,-2.1858 l -3.54679,-10.4754 -22.84788,0 -3.54678,10.4754 c -0.30246,0.7698 -0.85234,1.4709 -1.64967,2.1033 -0.76986,0.6049 -1.73216,0.9073 -2.88692,0.9073 l -10.887795,0 23.260295,-60.08909 14.26962,0 23.2603,60.08909" />
    </g>
    <path
       style="fill:none;stroke:#ffffff;stroke-width:5;stroke-linecap:butt;stroke-linejoin:miter;stroke-miterlimit:4;stroke-opacity:0.49803922;stroke-dasharray:15, 5;stroke-dashoffset:7.50000000000000000"
       d="m 0.49886621,900.82278 439.00226379,0"
       id="path2999"
       inkscape:connector-curvature="0" />
  </g>
</svg>
